<?xml version="1.0" encoding="UTF-8" standalone="no"?>
<svg
   width="260.54065pt"
   height="397.34555pt"
   viewBox="0 0 260.54065 397.34555"
   version="1.1"
   id="svg24"
   xmlns="http://www.w3.org/2000/svg"
   xmlns:svg="http://www.w3.org/2000/svg"
   xmlns:rdf="http://www.w3.org/1999/02/22-rdf-syntax-ns#"
   xmlns:cc="http://creativecommons.org/ns#"
   xmlns:dc="http://purl.org/dc/elements/1.1/">
  <metadata
     id="metadata2">
    <rdf:RDF>
      <cc:Work>
        <dc:type
           rdf:resource="http://purl.org/dc/dcmitype/StillImage" />
        <dc:date>2025-08-08T22:11:54.643643</dc:date>
        <dc:format>image/svg+xml</dc:format>
        <dc:creator>
          <cc:Agent>
            <dc:title>Matplotlib v3.7.1, https://matplotlib.org/</dc:title>
          </cc:Agent>
        </dc:creator>
      </cc:Work>
    </rdf:RDF>
  </metadata>
  <defs
     id="defs6">
    <style
       type="text/css"
       id="style4">*{stroke-linejoin: round; stroke-linecap: butt}</style>
  </defs>
  <defs
     id="defs22" />
  <path
     style="fill:none;stroke:#000000;stroke-width:0.15"
     d="m 86.558532,101.5303 c 0.332,0.272 0.665,0.544 0.997,0.816 0.333,0.272 0.665,0.543 0.998,0.815 0.333,0.272 0.666,0.544 1,0.815 0.332,0.272 0.665,0.543 0.999,0.815 l 0.999,0.813 c 0.333,0.271 0.667,0.543 1.001,0.814 0.333,0.271 0.667,0.541 1,0.812 0.334,0.271 0.667,0.541 1.001,0.812 0.334,0.27 0.668,0.541 1.003,0.811 0.333,0.271 0.667,0.541 1.002,0.811 l 1.002,0.81 c 0.334,0.27 0.669,0.54 1.003,0.81 0.335,0.27 0.669,0.54 1.003,0.809 0.334,0.27 0.668998,0.539 1.002998,0.809 0.335,0.27 0.67,0.539 1.005,0.809 0.334,0.27 0.669,0.539 1.004,0.808 0.335,0.269 0.669,0.539 1.004,0.808 0.335,0.269 0.67,0.538 1.005,0.808 0.335,0.269 0.669,0.538 1.004,0.807 l 1.005,0.807 c 0.335,0.269 0.671,0.538 1.006,0.807 0.335,0.269 0.67,0.538 1.006,0.807 0.335,0.269 0.67,0.537 1.005,0.806 0.335,0.269 0.671,0.538 1.006,0.806 0.335,0.269 0.67,0.538 1.006,0.806 0.335,0.269 0.67,0.537 1.005,0.806 0.335,0.269 0.671,0.538 1.006,0.806 0.335,0.269 0.67,0.538 1.006,0.806 0.335,0.269 0.67,0.537 1.005,0.806 0.335,0.269 0.671,0.538 1.006,0.806 0.336,0.269 0.671,0.538 1.006,0.806 0.335,0.269 0.671,0.538 1.006,0.807 0.335,0.269 0.671,0.538 1.006,0.807 0.335,0.268 0.67,0.537 1.006,0.806 0.335,0.269 0.67,0.537 1.005,0.806 0.335,0.269 0.671,0.538 1.006,0.807 l 1.005,0.807 1.005,0.807 c 0.335,0.269 0.67,0.538 1.005,0.808 0.335,0.269 0.67,0.538 1.004,0.807 0.335,0.269 0.669,0.539 1.004,0.808 0.335,0.27 0.67,0.539 1.004,0.809 0.335,0.27 0.67,0.539 1.004,0.809 0.334,0.269 0.669,0.539 1.003,0.809 0.334,0.27 0.669,0.54 1.003,0.81 0.335,0.27 0.669,0.539 1.003,0.81 l 1.002,0.81 c 0.334,0.27 0.668,0.54 1.002,0.811 0.334,0.27 0.668,0.541 1.002,0.812 0.333,0.27 0.667,0.541 1,0.812 0.334,0.271 0.668,0.542 1.001,0.813 0.334,0.271 0.667,0.542 1.001,0.813 0.333,0.271 0.666,0.542 0.999,0.814 0.333,0.271 0.666,0.543 0.999,0.815 0.333,0.271 0.666,0.543 0.998,0.815 0.333,0.271 0.665,0.543 0.998,0.815 0.332,0.272 0.665,0.544 0.997,0.817 0.333,0.272 0.665,0.544 0.997,0.817 0.332,0.272 0.663,0.545 0.995,0.818 0.332,0.273 0.664,0.546 0.996,0.82 0.331,0.273 0.663,0.546 0.994,0.82 0.331,0.273 0.663,0.546 0.994,0.82 l 0.993,0.822 c 0.331,0.274 0.662,0.548 0.992,0.823 0.331,0.274 0.661,0.548 0.992,0.823 0.316,0.263 0.662,0.507 1.03,0.737 0.349,0.219 0.718,0.426 1.101,0.624 0.369,0.191 0.751,0.375 1.139,0.554 0.381,0.176 0.768,0.349 1.155,0.521 0.387,0.172 0.774,0.343 1.156,0.518 0.389,0.178 0.771,0.359 1.143,0.547 0.384,0.195 0.757,0.397 1.111,0.611 0.371,0.224 0.722,0.461 1.045,0.716 0.34,0.268 0.65,0.555 0.92,0.867 0.279,0.322 0.515,0.67 0.701,1.051 0.179,0.369 0.311,0.768 0.386,1.203 0.067,0.391 0.088,0.811 0.058,1.263 -0.045,0.451 -0.088,0.902 -0.128,1.353 -0.04,0.451 -0.077,0.903 -0.11,1.355 -0.034,0.452 -0.064,0.904 -0.091,1.356 -0.027,0.452 -0.049,0.904 -0.068,1.356 -0.019,0.454 -0.034,0.907 -0.044,1.36 -0.011,0.453 -0.017,0.906 -0.018,1.359 -0.001,0.454 0.003,0.907 0.012,1.36 0.009,0.453 0.024,0.906 0.044,1.357 0.02,0.454 0.046,0.906 0.078,1.357 0.033,0.453 0.071,0.904 0.116,1.354 0.045,0.451 0.097,0.902 0.155,1.35 0.059,0.451 0.125,0.899 0.199,1.346 0.074,0.448 0.155,0.894 0.244,1.338 0.089,0.445 0.187,0.888 0.293,1.328 0.105,0.44 0.219,0.878 0.342,1.314 0.123,0.436 0.255,0.87 0.396,1.301 0.141,0.431 0.291,0.858 0.451,1.283 0.159,0.424 0.328,0.844 0.506,1.261 0.178,0.416 0.366,0.828 0.564,1.237 0.197,0.406 0.403,0.809 0.62,1.209 0.216,0.396 0.442,0.789 0.678,1.178 0.234,0.385 0.479,0.766 0.734,1.144 0.252,0.373 0.515,0.742 0.789,1.107 0.269,0.36 0.549,0.716 0.84,1.068 0.258,0.373 0.523,0.752 0.796,1.136 0.262,0.371 0.531,0.747 0.807,1.127 0.267,0.369 0.54,0.743 0.818,1.121 0.27,0.367 0.546,0.739 0.827,1.115 0.273,0.366 0.551,0.735 0.833,1.109 0.276,0.364 0.556,0.733 0.84,1.104 0.278,0.363 0.56,0.73 0.845,1.099 0.28,0.363 0.564,0.729 0.85,1.097 0.282,0.362 0.567,0.726 0.855,1.093 0.283,0.362 0.569,0.725 0.857,1.091 0.285,0.361 0.571,0.723 0.86,1.088 0.286,0.36 0.573,0.722 0.863,1.086 0.286,0.36 0.575,0.721 0.865,1.084 0.287,0.359 0.576,0.72 0.866,1.082 0.289,0.36 0.578,0.721 0.869,1.083 0.289,0.359 0.579,0.72 0.87,1.081 0.289,0.36 0.579,0.72 0.87,1.081 0.289,0.36 0.58,0.72 0.871,1.081 0.289,0.359 0.58,0.719 0.87,1.079 0.29,0.359 0.581,0.719 0.872,1.08 0.29,0.359 0.58,0.719 0.871,1.08 0.29,0.36 0.581,0.72 0.871,1.081 0.29,0.36 0.58,0.72 0.869,1.08 0.29,0.361 0.58,0.721 0.869,1.082 0.289,0.361 0.579,0.722 0.867,1.083 0.289,0.361 0.578,0.723 0.866,1.084 0.288,0.362 0.577,0.723 0.864,1.085 0.288,0.363 0.576,0.725 0.862,1.087 0.288,0.363 0.575,0.726 0.861,1.088 0.287,0.364 0.573,0.728 0.857,1.091 0.286,0.365 0.571,0.729 0.854,1.093 0.285,0.366 0.569,0.731 0.851,1.095 0.284,0.367 0.567,0.734 0.848,1.099 0.283,0.368 0.564,0.735 0.843,1.101 0.282,0.369 0.561,0.737 0.839,1.104 0.281,0.371 0.559,0.741 0.835,1.109 0.279,0.373 0.556,0.744 0.83,1.113 0.277,0.374 0.551,0.746 0.823,1.117 0.275,0.375 0.547,0.749 0.816,1.121 0.273,0.378 0.542,0.753 0.808,1.126 0.271,0.38 0.537,0.758 0.8,1.133 0.268,0.383 0.532,0.763 0.791,1.14 0.265,0.385 0.525,0.767 0.781,1.146 0.262,0.389 0.518,0.774 0.769,1.156 0.258,0.391 0.51,0.779 0.756,1.163 0.253,0.395 0.5,0.787 0.74,1.174 0.248,0.4 0.489,0.795 0.722,1.185 0.242,0.405 0.476,0.804 0.701,1.197 0.235,0.41 0.46,0.814 0.676,1.212 0.226,0.416 0.441,0.825 0.645,1.227 0.215,0.424 0.418,0.84 0.608,1.247 0.202,0.433 0.389,0.855 0.561,1.268 0.184,0.444 0.351,0.875 0.499,1.294 0.162,0.457 0.301,0.899 0.416,1.325 0.128,0.471 0.227,0.924 0.295,1.355 0.078,0.487 0.116,0.947 0.114,1.38 -0.003,0.495 -0.059,0.953 -0.172,1.373 -0.125,0.464 -0.319,0.882 -0.588,1.248 -0.265,0.362 -0.601,0.674 -1.015,0.934 -0.362,0.228 -0.782,0.416 -1.265,0.561 -0.318,0.112 -0.604,0.244 -0.862,0.397 -0.285,0.168 -0.535,0.36 -0.753,0.575 -0.228,0.225 -0.421,0.474 -0.583,0.746 -0.159,0.267 -0.288,0.556 -0.389,0.864 -0.096,0.291 -0.168,0.599 -0.219,0.924 -0.047,0.301 -0.075,0.616 -0.088,0.944 -0.012,0.306 -0.01,0.623 0.004,0.95 0.013,0.308 0.037,0.624 0.07,0.948 0.032,0.307 0.071,0.621 0.118,0.942 0.044,0.307 0.095,0.62 0.151,0.938 0.054,0.306 0.112,0.617 0.175,0.933 0.061,0.306 0.125,0.616 0.192,0.93 0.065,0.306 0.133,0.616 0.203,0.928 0.068,0.306 0.138,0.615 0.208,0.927 0.07,0.306 0.14,0.615 0.21,0.925 0.069,0.307 0.139,0.616 0.208,0.927 0.068,0.308 0.136,0.618 0.202,0.928 0.066,0.31 0.131,0.62 0.193,0.931 0.079,0.392 0.154,0.785 0.224,1.179 0.071,0.395 0.137,0.79 0.197,1.185 0.06,0.397 0.114,0.794 0.16,1.19 0.046,0.4 0.085,0.799 0.113,1.196 0.03,0.402 0.049,0.803 0.057,1.2 0.008,0.404 0.004,0.804 -0.013,1.2 -0.018,0.404 -0.049,0.803 -0.097,1.197 -0.048,0.401 -0.113,0.796 -0.196,1.185 -0.084,0.394 -0.187,0.781 -0.31,1.16 -0.124,0.381 -0.269,0.754 -0.436,1.118 -0.167,0.362 -0.356,0.715 -0.569,1.058 -0.209,0.335 -0.441,0.66 -0.698,0.975 -0.316,0.214 -0.577,0.444 -0.789,0.69 -0.241,0.28 -0.417,0.581 -0.532,0.899 -0.119,0.326 -0.174,0.671 -0.171,1.032 0.003,0.333 0.055,0.679 0.151,1.037 0.087,0.32 0.208,0.65 0.362,0.987 0.138,0.303 0.303,0.613 0.491,0.928 0.172,0.289 0.364,0.582 0.575,0.879 0.195,0.277 0.407,0.556 0.632,0.839 0.213,0.266 0.438,0.535 0.674,0.806 0.225,0.258 0.461,0.518 0.706,0.779 0.235,0.251 0.479,0.503 0.73,0.756 0.243,0.245 0.494,0.49 0.75,0.736 0.25,0.24 0.505,0.48 0.766,0.72 0.255,0.235 0.516,0.47 0.78,0.705 0.26,0.231 0.524,0.462 0.791,0.692 0.264,0.227 0.531,0.454 0.801,0.68 0.268,0.225 0.538,0.449 0.81,0.671 0.271,0.222 0.544,0.442 0.817,0.661 0.403,0.322 0.775,0.595 1.127,0.834 0.421,0.286 0.812,0.524 1.191,0.741 0.417,0.239 0.817,0.455 1.225,0.683 0.388,0.219 0.783,0.449 1.202,0.723 0.357,0.234 0.732,0.501 1.138,0.82 0.334,0.263 0.689,0.562 1.071,0.907 0.318,0.288 0.655,0.609 1.015,0.968 0.307,0.307 0.63,0.642 0.973,1.01 0.236,0.347 0.448,0.697 0.635,1.051 0.197,0.369 0.367,0.741 0.515,1.116 0.152,0.386 0.279,0.775 0.385,1.167 0.107,0.398 0.193,0.798 0.258,1.201 0.066,0.404 0.112,0.811 0.14,1.221 0.029,0.407 0.041,0.816 0.038,1.228 -0.003,0.407 -0.019,0.817 -0.047,1.228 -0.027,0.406 -0.066,0.814 -0.113,1.224 -0.046,0.405 -0.101,0.811 -0.162,1.219 -0.06,0.403 -0.126,0.808 -0.195,1.213 -0.069,0.403 -0.142,0.806 -0.216,1.21 -0.073,0.403 -0.148,0.806 -0.222,1.21 -0.074,0.403 -0.146,0.807 -0.216,1.211 -0.069,0.403 -0.136,0.808 -0.197,1.212 -0.061,0.406 -0.117,0.813 -0.165,1.219 -0.048,0.408 -0.089,0.816 -0.12,1.224 -0.03,0.409 -0.051,0.818 -0.059,1.227 -0.009,0.41 -0.005,0.819 0.014,1.228 0.019,0.409 0.053,0.817 0.103,1.224 0.051,0.405 0.119,0.809 0.206,1.212 0.085,0.398 0.19,0.794 0.315,1.188 0.122,0.385 0.265,0.769 0.429,1.152 0.159,0.369 0.338,0.737 0.54,1.103 0.193,0.351 0.407,0.7 0.643,1.048 0.274,0.281 0.56,0.639 0.851,1.066 0.235,0.344 0.474,0.733 0.714,1.163 0.209,0.374 0.419,0.78 0.628,1.213 0.189,0.392 0.378,0.808 0.564,1.243 0.173,0.405 0.344,0.828 0.511,1.267 0.159,0.414 0.314,0.843 0.466,1.284 0.145,0.422 0.287,0.855 0.424,1.299 0.133,0.427 0.261,0.865 0.385,1.311 0.121,0.432 0.237,0.873 0.348,1.321 0.108,0.436 0.212,0.88 0.31,1.329 0.096,0.441 0.188,0.887 0.273,1.338 0.084,0.445 0.163,0.893 0.236,1.346 0.072,0.447 0.138,0.898 0.197,1.351 0.059,0.45 0.112,0.903 0.157,1.357 0.046,0.452 0.085,0.906 0.116,1.361 0.031,0.454 0.055,0.909 0.071,1.364 0.016,0.455 0.025,0.911 0.025,1.366 0,0.455 -0.008,0.91 -0.025,1.364 -0.017,0.456 -0.043,0.911 -0.078,1.364 -0.035,0.454 -0.079,0.907 -0.134,1.358 -0.055,0.453 -0.12,0.904 -0.195,1.352 -0.076,0.451 -0.163,0.898 -0.261,1.34 -0.099,0.447 -0.21,0.889 -0.332,1.326 -0.124,0.44 -0.259,0.875 -0.408,1.303 -0.15,0.432 -0.312,0.857 -0.488,1.275 -0.178,0.421 -0.369,0.834 -0.574,1.239 -0.206,0.407 -0.427,0.806 -0.662,1.195 -0.236,0.389 -0.487,0.77 -0.753,1.14 -0.265,0.368 -0.546,0.727 -0.843,1.074 -0.294,0.344 -0.604,0.677 -0.93,0.999 -0.315,0.359 -0.6,0.718 -0.856,1.076 -0.278,0.388 -0.522,0.776 -0.734,1.162 -0.229,0.418 -0.42,0.834 -0.576,1.247 -0.167,0.444 -0.292,0.884 -0.379,1.32 -0.092,0.461 -0.141,0.917 -0.149,1.366 -0.009,0.464 0.025,0.92 0.098,1.369 0.074,0.453 0.188,0.897 0.338,1.332 0.149,0.43 0.333,0.85 0.55,1.26 0.212,0.399 0.455,0.789 0.725,1.166 0.264,0.367 0.553,0.723 0.867,1.067 0.304,0.334 0.63,0.656 0.976,0.965 0.338,0.302 0.695,0.592 1.067,0.868 0.365,0.271 0.745,0.528 1.138,0.772 0.387,0.24 0.786,0.466 1.196,0.678 0.405,0.21 0.82,0.405 1.243,0.585 0.421,0.179 0.849,0.344 1.283,0.493 0.434,0.148 0.873,0.281 1.316,0.398 0.444,0.116 0.892,0.217 1.342,0.299 0.453,0.083 0.907,0.148 1.361,0.195 0.459,0.047 0.917,0.075 1.372,0.082 0.461,0.008 0.92,-0.005 1.373,-0.039 0.461,-0.035 0.916,-0.092 1.364,-0.173 0.454,-0.081 0.9,-0.187 1.336,-0.319 0.441,-0.133 0.871,-0.291 1.288,-0.477 0.441,-0.148 0.868,-0.31 1.284,-0.484 0.428,-0.18 0.843,-0.374 1.245,-0.58 0.412,-0.212 0.811,-0.437 1.195,-0.674 0.394,-0.243 0.772,-0.5 1.136,-0.768 0.372,-0.275 0.729,-0.562 1.07,-0.86 0.348,-0.304 0.679,-0.619 0.995,-0.945 0.32,-0.331 0.624,-0.673 0.912,-1.025 0.291,-0.356 0.566,-0.722 0.825,-1.097 0.261,-0.378 0.505,-0.765 0.733,-1.159 0.229,-0.398 0.442,-0.803 0.638,-1.216 0.197,-0.414 0.378,-0.835 0.542,-1.261 0.164,-0.427 0.312,-0.861 0.443,-1.298 0.132,-0.439 0.247,-0.882 0.346,-1.328 0.099,-0.447 0.181,-0.898 0.247,-1.35 0.066,-0.454 0.116,-0.909 0.149,-1.365 0.033,-0.457 0.05,-0.915 0.051,-1.371 0,-0.459 -0.017,-0.916 -0.049,-1.371 -0.033,-0.458 -0.083,-0.913 -0.149,-1.364 -0.067,-0.455 -0.15,-0.905 -0.25,-1.35 -0.1,-0.448 -0.218,-0.89 -0.352,-1.326 -0.135,-0.438 -0.287,-0.87 -0.456,-1.293 -0.17,-0.426 -0.358,-0.844 -0.562,-1.252 -0.206,-0.41 -0.429,-0.81 -0.669,-1.198 -0.241,-0.391 -0.5,-0.769 -0.775,-1.133 -0.228,-0.377 -0.445,-0.755 -0.653,-1.132 -0.212,-0.387 -0.414,-0.773 -0.605,-1.159 -0.196,-0.395 -0.381,-0.789 -0.556,-1.184 -0.178,-0.402 -0.346,-0.805 -0.504,-1.207 -0.16,-0.409 -0.31,-0.818 -0.45,-1.228 -0.142,-0.416 -0.273,-0.831 -0.395,-1.247 -0.123,-0.421 -0.237,-0.842 -0.34,-1.263 -0.105,-0.425 -0.2,-0.851 -0.285,-1.277 -0.086,-0.428 -0.163,-0.857 -0.231,-1.286 -0.068,-0.432 -0.128,-0.863 -0.179,-1.295 -0.051,-0.433 -0.093,-0.867 -0.128,-1.3 -0.034,-0.435 -0.061,-0.871 -0.08,-1.306 -0.019,-0.436 -0.031,-0.872 -0.036,-1.308 -0.005,-0.435 -0.003,-0.871 0.006,-1.307 0.008,-0.435 0.023,-0.871 0.044,-1.307 0.021,-0.435 0.047,-0.87 0.079,-1.305 0.031,-0.434 0.068,-0.868 0.109,-1.303 0.041,-0.433 0.086,-0.867 0.136,-1.3 0.049,-0.432 0.103,-0.865 0.16,-1.297 0.057,-0.432 0.117,-0.864 0.181,-1.296 0.063,-0.431 0.129,-0.862 0.197,-1.293 0.068,-0.43 0.138,-0.861 0.21,-1.291 0.072,-0.429 0.146,-0.859 0.221,-1.288 0.074,-0.43 0.15,-0.859 0.227,-1.289 0.114,-0.409 0.184,-0.832 0.216,-1.268 0.03,-0.418 0.026,-0.847 -0.008,-1.286 -0.033,-0.417 -0.092,-0.843 -0.174,-1.276 -0.078,-0.412 -0.177,-0.83 -0.292,-1.254 -0.11,-0.406 -0.236,-0.817 -0.373,-1.232 -0.133,-0.401 -0.277,-0.806 -0.429,-1.214 -0.148,-0.398 -0.305,-0.799 -0.466,-1.201 -0.159,-0.396 -0.322,-0.794 -0.488,-1.192 -0.164,-0.396 -0.331,-0.792 -0.497,-1.188 -0.166,-0.397 -0.332,-0.794 -0.494,-1.189 -0.164,-0.4 -0.325,-0.798 -0.48,-1.195 -0.157,-0.404 -0.309,-0.807 -0.451,-1.206 -0.127,-0.357 -0.189,-0.681 -0.196,-0.977 -0.009,-0.36 0.06,-0.681 0.185,-0.977 0.128,-0.303 0.315,-0.579 0.536,-0.842 0.208,-0.248 0.446,-0.485 0.693,-0.722 0.238,-0.229 0.484,-0.457 0.719,-0.697 0.234,-0.239 0.457,-0.489 0.651,-0.76 0.192,-0.269 0.355,-0.559 0.471,-0.88 0.107,-0.298 0.175,-0.622 0.187,-0.981 0.011,-0.305 -0.018,-0.635 -0.094,-0.995 -0.063,-0.297 -0.159,-0.615 -0.292,-0.956 -0.112,-0.287 -0.251,-0.59 -0.418,-0.911 -0.144,-0.276 -0.31,-0.565 -0.499,-0.868 -0.238,-0.323 -0.469,-0.659 -0.696,-1.005 -0.219,-0.336 -0.434,-0.683 -0.643,-1.039 -0.204,-0.347 -0.403,-0.704 -0.597,-1.069 -0.189,-0.355 -0.374,-0.719 -0.555,-1.091 -0.176,-0.362 -0.348,-0.731 -0.516,-1.108 -0.165,-0.368 -0.326,-0.742 -0.483,-1.123 -0.154,-0.373 -0.305,-0.752 -0.453,-1.137 -0.144,-0.377 -0.286,-0.759 -0.424,-1.146 -0.136,-0.38 -0.269,-0.765 -0.4,-1.155 -0.129,-0.384 -0.255,-0.771 -0.378,-1.163 -0.122,-0.386 -0.241,-0.776 -0.357,-1.17 -0.116,-0.388 -0.228,-0.781 -0.339,-1.176 -0.109,-0.39 -0.217,-0.784 -0.322,-1.18 -0.104,-0.392 -0.206,-0.786 -0.306,-1.183 -0.099,-0.394 -0.196,-0.791 -0.292,-1.189 -0.095,-0.395 -0.188,-0.791 -0.279,-1.189 -0.091,-0.397 -0.18,-0.794 -0.268,-1.194 -0.087,-0.397 -0.173,-0.796 -0.257,-1.196 -0.068,-0.326 -0.146,-0.651 -0.231,-0.975 -0.084,-0.322 -0.177,-0.642 -0.274,-0.962 -0.098,-0.318 -0.201,-0.636 -0.308,-0.953 -0.107,-0.316 -0.218,-0.631 -0.331,-0.945 -0.113,-0.313 -0.229,-0.626 -0.345,-0.939 -0.117,-0.313 -0.234,-0.625 -0.351,-0.937 -0.117,-0.313 -0.234,-0.626 -0.348,-0.939 -0.115,-0.314 -0.228,-0.628 -0.336,-0.942 -0.11,-0.317 -0.216,-0.634 -0.316,-0.951 -0.101,-0.319 -0.196,-0.639 -0.284,-0.959 -0.089,-0.323 -0.17,-0.647 -0.243,-0.971 -0.073,-0.327 -0.136,-0.654 -0.189,-0.983 -0.053,-0.33 -0.095,-0.661 -0.124,-0.994 -0.029,-0.331 -0.045,-0.665 -0.047,-0.999 -0.002,-0.332 0.011,-0.665 0.04,-1 0.029,-0.329 0.073,-0.659 0.134,-0.992 0.059,-0.323 0.135,-0.648 0.228,-0.975 0.09,-0.314 0.196,-0.629 0.32,-0.947 0.101,-0.44 0.225,-0.864 0.369,-1.275 0.149,-0.423 0.319,-0.831 0.509,-1.226 0.193,-0.402 0.406,-0.79 0.637,-1.167 0.231,-0.378 0.48,-0.744 0.743,-1.1 0.263,-0.355 0.54,-0.7 0.83,-1.037 0.287,-0.335 0.586,-0.661 0.895,-0.981 0.306,-0.317 0.621,-0.628 0.943,-0.934 0.32,-0.303 0.647,-0.602 0.977,-0.898 0.33,-0.295 0.664,-0.587 1,-0.877 0.335,-0.29 0.672,-0.578 1.008,-0.866 0.337,-0.289 0.673,-0.578 1.007,-0.868 0.334,-0.292 0.666,-0.585 0.993,-0.881 0.329,-0.299 0.653,-0.6 0.969,-0.907 0.319,-0.31 0.631,-0.625 0.932,-0.947 0.304,-0.325 0.597,-0.657 0.877,-0.998 0.282,-0.343 0.55,-0.695 0.803,-1.057 0.253,-0.364 0.489,-0.738 0.707,-1.125 0.216,-0.384 0.413,-0.781 0.588,-1.191 0.172,-0.403 0.323,-0.819 0.451,-1.249 0.123,-0.417 0.224,-0.847 0.301,-1.293 0.074,-0.426 0.125,-0.865 0.152,-1.32 0.026,-0.429 0.03,-0.871 0.011,-1.328 -0.018,-0.428 -0.056,-0.869 -0.115,-1.324 -0.056,-0.423 -0.13,-0.859 -0.224,-1.308 -0.127,-0.442 -0.234,-0.879 -0.324,-1.312 -0.092,-0.449 -0.166,-0.893 -0.222,-1.334 -0.058,-0.452 -0.096,-0.901 -0.118,-1.347 -0.022,-0.454 -0.026,-0.904 -0.015,-1.352 0.012,-0.453 0.041,-0.903 0.084,-1.35 0.044,-0.45 0.103,-0.897 0.175,-1.342 0.072,-0.444 0.157,-0.887 0.253,-1.328 0.096,-0.439 0.204,-0.878 0.321,-1.316 0.116,-0.433 0.241,-0.866 0.375,-1.299 0.132,-0.428 0.272,-0.857 0.418,-1.287 0.144,-0.424 0.294,-0.849 0.45,-1.275 0.153,-0.421 0.31,-0.844 0.471,-1.268 0.159,-0.419 0.32,-0.839 0.484,-1.262 0.161,-0.418 0.325,-0.839 0.488,-1.262 0.162,-0.418 0.324,-0.839 0.485,-1.264 0.159,-0.419 0.317,-0.841 0.473,-1.267 0.154,-0.42 0.306,-0.844 0.455,-1.273 0.147,-0.423 0.291,-0.85 0.431,-1.282 0.138,-0.426 0.272,-0.856 0.401,-1.292 0.127,-0.429 0.249,-0.864 0.365,-1.303 0.115,-0.433 0.223,-0.87 0.325,-1.313 0.1,-0.436 0.194,-0.877 0.279,-1.323 0.085,-0.439 0.162,-0.883 0.231,-1.333 0.067,-0.441 0.127,-0.888 0.178,-1.34 0.028,-0.395 0.046,-0.79 0.053,-1.183 0.008,-0.397 0.004,-0.792 -0.009,-1.185 -0.013,-0.397 -0.036,-0.791 -0.07,-1.184 -0.034,-0.394 -0.078,-0.787 -0.131,-1.177 -0.054,-0.392 -0.118,-0.782 -0.191,-1.17 -0.074,-0.389 -0.157,-0.775 -0.25,-1.159 -0.093,-0.385 -0.195,-0.767 -0.307,-1.146 -0.112,-0.379 -0.233,-0.756 -0.363,-1.129 -0.13,-0.373 -0.269,-0.742 -0.417,-1.108 -0.148,-0.367 -0.304,-0.729 -0.47,-1.088 -0.165,-0.359 -0.339,-0.714 -0.521,-1.064 -0.182,-0.351 -0.372,-0.697 -0.57,-1.038 -0.198,-0.342 -0.405,-0.679 -0.619,-1.011 -0.214,-0.332 -0.436,-0.66 -0.665,-0.981 -0.23,-0.322 -0.466,-0.638 -0.71,-0.948 -0.244,-0.311 -0.496,-0.616 -0.755,-0.915 -0.258,-0.299 -0.524,-0.592 -0.797,-0.878 -0.272,-0.287 -0.551,-0.566 -0.836,-0.839 -0.286,-0.273 -0.578,-0.54 -0.876,-0.799 -0.299,-0.26 -0.604,-0.512 -0.914,-0.756 -0.311,-0.245 -0.627,-0.482 -0.949,-0.71 -0.322,-0.229 -0.65,-0.45 -0.982,-0.662 -0.334,-0.213 -0.672,-0.417 -1.015,-0.613 -0.344,-0.195 -0.692,-0.382 -1.045,-0.559 -0.353,-0.177 -0.71,-0.345 -1.072,-0.504 -0.362,-0.158 -0.728,-0.307 -1.098,-0.446 -0.37,-0.139 -0.743,-0.268 -1.121,-0.387 -0.376,-0.118 -0.756,-0.227 -1.139,-0.325 -0.382,-0.097 -0.768,-0.184 -1.156,-0.261 -0.387,-0.076 -0.777,-0.141 -1.17,-0.195 -0.39,-0.054 -0.782,-0.097 -1.177,-0.128 -0.393,-0.032 -0.787,-0.052 -1.184,-0.061 -0.394,-0.009 -0.789,-0.007 -1.186,0.007 -0.393,0.014 -0.787,0.038 -1.183,0.074 -0.391,0.036 -0.783,0.083 -1.177,0.142 -0.387,0.058 -0.776,0.127 -1.166,0.207 -0.45,0.084 -0.895,0.15 -1.335,0.2 -0.455,0.051 -0.903,0.084 -1.345,0.1 -0.457,0.017 -0.907,0.016 -1.348,-0.003 -0.459,-0.019 -0.907,-0.057 -1.345,-0.112 -0.456,-0.058 -0.9,-0.134 -1.329,-0.228 -0.45,-0.099 -0.884,-0.216 -1.301,-0.352 -0.44,-0.143 -0.86,-0.306 -1.258,-0.487 -0.422,-0.193 -0.82,-0.405 -1.188,-0.636 -0.395,-0.248 -0.757,-0.516 -1.083,-0.802 -0.35,-0.308 -0.659,-0.636 -0.921,-0.982 -0.279,-0.37 -0.506,-0.76 -0.673,-1.166 -0.173,-0.419 -0.284,-0.855 -0.325,-1.304 -0.039,-0.417 -0.017,-0.845 0.068,-1.28 0.079,-0.401 0.213,-0.808 0.405,-1.218 0.171,-0.366 0.389,-0.735 0.656,-1.104 0.236,-0.328 0.511,-0.656 0.827,-0.983 0.282,-0.292 0.596,-0.583 0.944,-0.873 0.313,-0.261 0.654,-0.52 1.022,-0.778 0.336,-0.235 0.696,-0.468 1.08,-0.699 0.353,-0.212 0.726,-0.423 1.121,-0.631 0.348,-0.195 0.64,-0.421 0.881,-0.676 0.262,-0.275 0.464,-0.585 0.611,-0.924 0.144,-0.33 0.236,-0.69 0.282,-1.075 0.042,-0.35 0.046,-0.721 0.015,-1.112 -0.028,-0.352 -0.083,-0.72 -0.164,-1.102 -0.074,-0.348 -0.168,-0.708 -0.281,-1.078 -0.105,-0.343 -0.225,-0.694 -0.36,-1.054 -0.127,-0.337 -0.266,-0.682 -0.416,-1.033 -0.143,-0.333 -0.296,-0.672 -0.458,-1.016 -0.155,-0.329 -0.318,-0.663 -0.489,-1.001 -0.164,-0.326 -0.335,-0.656 -0.512,-0.989 -0.172,-0.324 -0.349,-0.651 -0.531,-0.98 -0.178,-0.322 -0.36,-0.646 -0.546,-0.972 -0.182,-0.32 -0.367,-0.643 -0.555,-0.966 -0.186,-0.319 -0.374,-0.639 -0.564,-0.961 -0.188,-0.318 -0.378,-0.638 -0.569,-0.958 -0.19,-0.318 -0.381,-0.637 -0.573,-0.957 -0.19,-0.318 -0.382,-0.636 -0.573,-0.955 -0.175,-0.291 -0.349,-0.582 -0.523,-0.872 -0.174,-0.291 -0.348,-0.582 -0.52,-0.873 -0.173,-0.292 -0.346,-0.584 -0.516,-0.875 -0.172,-0.294 -0.343,-0.586 -0.511,-0.878 -0.171,-0.296 -0.339,-0.591 -0.505,-0.884 -0.168,-0.298 -0.333,-0.594 -0.494,-0.888 -0.165,-0.301 -0.326,-0.599 -0.482,-0.895 -0.16,-0.304 -0.316,-0.605 -0.466,-0.903 -0.155,-0.307 -0.304,-0.611 -0.446,-0.912 -0.148,-0.312 -0.289,-0.62 -0.422,-0.924 -0.14,-0.318 -0.27,-0.631 -0.391,-0.939 -0.128,-0.324 -0.245,-0.642 -0.35,-0.954 -0.176,-0.411 -0.363,-0.818 -0.559,-1.223 -0.194,-0.401 -0.398,-0.8 -0.61,-1.197 -0.21,-0.393 -0.429,-0.784 -0.655,-1.174 -0.224,-0.386 -0.455,-0.77 -0.693,-1.153 -0.235,-0.378 -0.477,-0.756 -0.724,-1.132 -0.244,-0.373 -0.495,-0.746 -0.749,-1.117 -0.252,-0.369 -0.509,-0.736 -0.769,-1.104 -0.258,-0.364 -0.519,-0.728 -0.783,-1.092 -0.262,-0.362 -0.527,-0.723 -0.793,-1.085 -0.265,-0.36 -0.532,-0.721 -0.799,-1.082 -0.267,-0.359 -0.534,-0.718 -0.801,-1.079 -0.266,-0.359 -0.533,-0.72 -0.798,-1.081 -0.265,-0.361 -0.53,-0.723 -0.793,-1.086 -0.263,-0.362 -0.524,-0.726 -0.783,-1.092 -0.259,-0.366 -0.516,-0.733 -0.77,-1.103 -0.253,-0.37 -0.504,-0.741 -0.751,-1.115 -0.247,-0.374 -0.491,-0.75 -0.73,-1.129 -0.239,-0.379 -0.473,-0.761 -0.703,-1.146 -0.229,-0.385 -0.454,-0.772 -0.672,-1.163 -0.219,-0.391 -0.431,-0.786 -0.637,-1.184 -0.206,-0.398 -0.405,-0.799 -0.597,-1.205 -0.192,-0.405 -0.376,-0.813 -0.552,-1.226 -0.176,-0.412 -0.343,-0.827 -0.502,-1.247 -0.158,-0.418 -0.308,-0.84 -0.448,-1.267 -0.149,-0.429 -0.272,-0.866 -0.37,-1.309 -0.097,-0.44 -0.17,-0.887 -0.223,-1.339 -0.053,-0.447 -0.085,-0.899 -0.1,-1.356 -0.015,-0.45 -0.013,-0.904 0.002,-1.361 0.015,-0.449 0.042,-0.901 0.08,-1.356 0.038,-0.45 0.085,-0.901 0.14,-1.354 0.054,-0.449 0.115,-0.898 0.181,-1.348 0.065,-0.448 0.135,-0.897 0.206,-1.345 0.071,-0.448 0.144,-0.895 0.216,-1.342 0.072,-0.45 0.144,-0.898 0.211,-1.344 0.069,-0.452 0.133,-0.901 0.191,-1.347 0.059,-0.453 0.111,-0.904 0.154,-1.35 0.044,-0.457 0.077,-0.91 0.097,-1.357 0.02,-0.459 0.027,-0.912 0.016,-1.359 -0.012,-0.46 -0.041,-0.912 -0.093,-1.357 -0.053,-0.455 -0.129,-0.902 -0.232,-1.339 -0.105,-0.443 -0.237,-0.876 -0.402,-1.298 -0.163,-0.419 -0.358,-0.827005 -0.589,-1.223005 -0.224,-0.384 -0.481,-0.756 -0.775,-1.116 -0.278,-0.339 -0.59,-0.667 -0.937,-0.982 -0.323,-0.293 -0.677,-0.575 -1.065,-0.846 -0.356,-0.249 -0.74,-0.488 -1.154,-0.717 -0.381,-0.21 -0.787,-0.411 -1.22,-0.603 -0.397,-0.176 -0.818,-0.345 -1.262,-0.506 -0.398,-0.181 -0.812,-0.355 -1.24,-0.524 -0.408,-0.162 -0.829,-0.319 -1.26,-0.472 -0.416,-0.148 -0.842,-0.293 -1.275,-0.436 -0.421,-0.139 -0.849,-0.275 -1.282,-0.411 -0.424,-0.133 -0.853,-0.266 -1.286,-0.398 -0.427,-0.13 -0.856,-0.26 -1.288,-0.391 -0.427,-0.13 -0.857,-0.261 -1.287,-0.393 -0.428,-0.133 -0.857,-0.267 -1.285,-0.403 -0.428,-0.137 -0.855,-0.276 -1.279,-0.419 -0.427,-0.144 -0.851,-0.291 -1.271,-0.443 -0.425,-0.154 -0.845,-0.313 -1.26,-0.476 -0.421,-0.167 -0.836,-0.339 -1.244,-0.518 -0.415,-0.182 -0.823,-0.372 -1.22,-0.569 -0.407,-0.202 -0.804,-0.412 -1.189,-0.632 -0.395,-0.225 -0.777,-0.461 -1.145,-0.708 -0.378,-0.253 -0.74,-0.519 -1.084,-0.797 -0.353,-0.285 -0.687,-0.585 -1,-0.899 -0.32,-0.32 -0.617,-0.657 -0.89,-1.01 -0.275,-0.355 -0.525,-0.728 -0.747,-1.12 -0.22,-0.386 -0.413,-0.791 -0.577,-1.216 -0.159,-0.409 -0.29,-0.838 -0.392,-1.286 -0.097,-0.425 -0.167,-0.8676 -0.21,-1.3293 -0.039,-0.4313 -0.054,-0.8792 -0.043,-1.3444 0.01,-0.4319 0.043,-0.8789 0.1,-1.3415 0.023,-0.414 0.026,-0.8324 0.007,-1.2541 -0.017,-0.4135 -0.055,-0.8301 -0.111,-1.2487 -0.055,-0.4106 -0.128,-0.8231 -0.218,-1.2366 -0.088,-0.4043 -0.193,-0.8095 -0.313,-1.2146 -0.118,-0.3973 -0.251,-0.7946 -0.398,-1.191 -0.144,-0.3887 -0.301,-0.7765 -0.472,-1.1626 -0.168,-0.3792 -0.348,-0.7568 -0.54,-1.1318 -0.189,-0.3697 -0.39,-0.7369 -0.601,-1.101 -0.209,-0.3598 -0.429,-0.7166 -0.658,-1.0695 -0.227,-0.3491 -0.464,-0.6945 -0.71,-1.0355 -0.244,-0.338 -0.497,-0.6716 -0.758,-1.0001 -0.26,-0.3267 -0.528,-0.6483 -0.803,-0.9642 -0.275,-0.3148 -0.557,-0.6239 -0.847,-0.9267 -0.289,-0.3026 -0.585,-0.5988 -0.888,-0.8881 -0.302,-0.2892 -0.612,-0.5715 -0.927,-0.8461 -0.316,-0.2753 -0.638,-0.543 -0.965,-0.8022 -0.329,-0.2603 -0.663,-0.5122 -1.002,-0.7549 -0.341,-0.2446 -0.687,-0.48 -1.038,-0.7053 -0.353,-0.227 -0.711,-0.4438 -1.073,-0.6498 -0.365,-0.2083 -0.735,-0.4054 -1.107,-0.5907 -0.377,-0.1875 -0.757,-0.3629 -1.14,-0.5254 -0.388,-0.1646 -0.779,-0.3159 -1.171,-0.4532 -0.398,-0.1391 -0.798,-0.2638 -1.199,-0.3733 -0.406,-0.1108 -0.814,-0.2059 -1.222,-0.2846 -0.396,-0.1425 -0.781,-0.2964 -1.157,-0.4611 -0.384,-0.1684 -0.759,-0.3482 -1.124,-0.5385 -0.371,-0.1934 -0.732,-0.3977 -1.084,-0.6122 -0.356,-0.2171 -0.704,-0.4447 -1.042,-0.6821 -0.341,-0.2387 -0.673,-0.4873 -0.997,-0.745 -0.326,-0.2587 -0.643,-0.5265 -0.953,-0.8027 -0.31,-0.2757 -0.612,-0.5598 -0.908,-0.8515 -0.295,-0.2907 -0.583,-0.5889 -0.866,-0.8939 -0.281,-0.3038 -0.557,-0.6143 -0.827,-0.9308 -0.269,-0.3147 -0.534,-0.6352 -0.793,-0.9609 -0.258,-0.3236 -0.512,-0.6522 -0.762,-0.9852 -0.249,-0.331 -0.494,-0.6663 -0.736,-1.0052 -0.241,-0.337 -0.479,-0.6775 -0.714,-1.0208 -0.235,-0.3415 -0.467,-0.6858 -0.698,-1.0322 -0.229,-0.345 -0.458,-0.6922 -0.685,-1.0407 -0.226,-0.3474 -0.452,-0.6961 -0.677,-1.0456 -0.224,-0.3485 -0.449,-0.6976 -0.673,-1.0468 -0.224,-0.3492 -0.449,-0.6985 -0.675,-1.0471 -0.226,-0.3489 -0.452,-0.6971 -0.681,-1.044 -0.228,-0.3471 -0.458,-0.6929 -0.69,-1.0368 -0.232,-0.3445 -0.467,-0.687 -0.704,-1.0268 -0.238,-0.3407 -0.479,-0.6786 -0.723,-1.0133 -0.245,-0.3359 -0.494,-0.6684 -0.746,-0.9969 -0.254,-0.3298 -0.512,-0.6554 -0.774,-0.9762 -0.263,-0.3219 -0.532,-0.639 -0.805,-0.9505 -0.275,-0.3124 -0.555,-0.6191 -0.841,-0.9196 -0.286,-0.3011 -0.579,-0.5958 -0.878,-0.8835 -0.299,-0.2875 -0.605,-0.568 -0.918,-0.8407 -0.312,-0.2719 -0.632,-0.5361 -0.96,-0.7918 -0.326,-0.2548 -0.66,-0.5013 -1.003,-0.7387 -0.366,-0.2877 -0.733,-0.5745 -1.101,-0.8605 -0.367,-0.2858 -0.735,-0.5708 -1.103,-0.8551 -0.368,-0.2842 -0.737,-0.5677 -1.107,-0.8504 -0.37,-0.2826 -0.74,-0.5646 -1.111,-0.8458 -0.371,-0.281 -0.742,-0.5614 -1.114,-0.8411 -0.371,-0.2797 -0.743,-0.5588 -1.116,-0.8372 -0.373,-0.2787 -0.746,-0.5567 -1.12,-0.8342 -0.374,-0.2773 -0.748,-0.554 -1.122,-0.8301 -0.375,-0.2762 -0.75,-0.5518 -1.125,-0.827 -0.376,-0.2754 -0.751,-0.5502 -1.128,-0.8247 -0.375,-0.2742 -0.752,-0.548 -1.128,-0.8214 -0.377,-0.2734 -0.754,-0.5464 -1.131,-0.819 -0.377,-0.2727 -0.755,-0.5451 -1.133,-0.8171 -0.377,-0.2718 -0.755,-0.5434 -1.133,-0.8146 -0.378,-0.2712 -0.756,-0.5422 -1.135,-0.8129 -0.379,-0.2709 -0.757,-0.5416 -1.136,-0.812 -0.379,-0.2703 -0.758,-0.5404 -1.137,-0.8103 -0.379,-0.2699 -0.758,-0.5397 -1.137,-0.8093 -0.38,-0.27 -0.759,-0.5399 -1.139,-0.8097 -0.379,-0.2696 -0.759,-0.5392 -1.138,-0.8087 -0.379,-0.2695 -0.759,-0.5389 -1.138,-0.8084 -0.38,-0.2697 -0.759,-0.5393 -1.139,-0.809 -0.378998,-0.2695 -0.757998,-0.539 -1.136998,-0.8085996 -0.38,-0.2697 -0.758,-0.5394 -1.137,-0.8092 -0.379,-0.2703 -0.758,-0.5407 -1.137,-0.8113 -0.379,-0.2703 -0.757,-0.5409 -1.136,-0.8116 -0.378,-0.2708 -0.756,-0.5417 -1.134,-0.8129 -0.378,-0.2716 -0.756,-0.5435 -1.134,-0.8157 -0.377,-0.2719 -0.754,-0.5442 -1.131,-0.8168 -0.377,-0.2726 -0.754,-0.5455 -1.13,-0.8188 -0.386,-0.2248 -0.777,-0.4408 -1.172,-0.6477 -0.396,-0.2072 -0.796,-0.4054 -1.201,-0.5944 -0.404,-0.189 -0.812,-0.3688 -1.224,-0.5393 -0.413,-0.1709 -0.829,-0.3325 -1.249,-0.4846 -0.42,-0.1524 -0.8434,-0.2952 -1.2694,-0.4284 -0.426,-0.1332 -0.8546,-0.2567 -1.2855,-0.3705 -0.4323,-0.1142 -0.8669,-0.2185 -1.3032,-0.3129 -0.4365,-0.0944 -0.8748,-0.1788 -1.3144,-0.2532 -0.4405,-0.0745 -0.8823,-0.1389 -1.3249,-0.193 -0.4431,-0.0542 -0.887,-0.0981 -1.3314,-0.1315 -0.4455,-0.0336 -0.8914,-0.0567 -1.3373,-0.0691 -0.4467,-0.0125 -0.8933,-0.0144 -1.3394,-0.0054 -0.4467,0.009 -0.8928,0.0287 -1.338,0.0594 -0.4457,0.0308 -0.8905,0.0725 -1.3337,0.1254 -0.4432,0.0528 -0.885,0.1168 -1.3247,0.192 -0.4397,0.0752 -0.8775,0.1616 -1.3128,0.2594 -0.435,0.0978 -0.8675,0.2069 -1.2971,0.3275 -0.4296,0.1206 -0.8563,0.2527 -1.2795,0.3965 -0.4219,0.1433 -0.8404,0.2981 -1.255,0.4647 -0.4133,0.166 -0.8228,0.3436 -1.228,0.533 -0.4036,0.1886 -0.803,0.3889 -1.1976,0.601 -0.3914,0.2104 -0.7782,0.4323 -1.1599,0.666 -0.3791,0.2321 -0.7531,0.4758 -1.1217,0.7312 -0.365,0.2528 -0.7246,0.5172 -1.0784,0.7931 -0.3953,0.2121 -0.7949,0.4133 -1.1985,0.604 -0.4048,0.1912 -0.8136,0.3718 -1.2261,0.5424 -0.4134,0.1709 -0.8306,0.3316 -1.2514,0.4827 -0.4206,0.151 -0.8448,0.2923 -1.2723,0.4244 -0.4271,0.132 -0.8575,0.2547 -1.2909,0.3687 -0.4317,0.1136 -0.8664,0.2184 -1.3039,0.315 -0.4359,0.0962 -0.8745,0.1843 -1.3156,0.2645 -0.4388,0.0799 -0.88,0.152 -1.3234,0.217 -0.4417,0.0646 -0.8856,0.1221 -1.3314,0.1728 -0.443,0.0504 -0.888,0.0941 -1.3346,0.1316 -0.4443,0.0373 -0.8902,0.0683 -1.3376,0.0936 -0.4456,0.0252 -0.8926,0.0446 -1.3409,0.0587 -0.4458,0.014 -0.8927,0.0228 -1.3406,0.0266 -0.4465,0.0039 -0.8939,0.0029 -1.342,-0.0025 -0.4465,-0.0054 -0.8936,-0.0152 -1.3412,-0.029 -0.4466,-0.0138 -0.8937,-0.0316 -1.3411,-0.053 -0.4461,-0.0214 -0.8925,-0.0463 -1.3389,-0.0744 -0.4464,-0.0282 -0.8928,-0.0595 -1.3391,-0.0937 -0.446,-0.0341 -0.8919,-0.0711 -1.3374,-0.1105 -0.4457,-0.0394 -0.891,-0.0813 -1.3357,-0.1252 -0.4456,-0.044 -0.8906,-0.0901 -1.3347,-0.1378 -0.4456,-0.0479 -0.8904,-0.0974 -1.3341,-0.1483 -0.4455,-0.0511 -0.8899,-0.1034 -1.333,-0.1567 -0.4449,-0.0535 -0.8884,-0.1079 -1.3304,-0.1628 -0.4454,-0.0553 -0.8892,-0.1112 -1.3313,-0.1671 -0.4454,-0.0564 -0.8889,-0.1129 -1.3305,-0.1691 -0.4458,-0.0568 -0.8896,-0.1132 -1.331,-0.1689 -0.4465,-0.0563 -0.8905,-0.1119 -1.3319,-0.1662 -0.4464,-0.055 -0.8901,-0.1087 -1.3309,-0.1607 -0.4476,-0.0529 -0.8922,-0.1039 -1.3334,-0.1528 -0.4484,-0.0497 -0.8933,-0.097 -1.3345,-0.1415 -0.4493,-0.0453 -0.8946,-0.0877 -1.3358,-0.1267 -0.4499,-0.0397 -0.8954,-0.0758 -1.3362,-0.1077 -0.4516,-0.0327 -0.8983,-0.0611 -1.3397,-0.0845 -0.4527,-0.024 -0.8999,-0.0427 -1.3412,-0.0555 -0.4535,-0.0132 -0.9007,-0.0201 -1.3413,-0.0201 -0.454,0 -0.901,0.0074 -1.3404,0.023 -0.455,0.0162 -0.9019,0.0411 -1.3402,0.0756 -0.4541,0.0357 -0.8989002,0.0818 -1.3340002,0.1392 -0.4522,0.0597 -0.8938,0.1315 -1.3243,0.2167 -0.4473,0.0884 -0.8826,0.1912 -1.3051,0.3096 -0.4386,0.1228 -0.8634,0.2624 -1.2738,0.4201 -0.4042,0.2247 -0.7821,0.4536 -1.1346,0.6862 -0.3871,0.2555 -0.7437,0.5155 -1.0709,0.7796 -0.3622,0.2923 -0.6885,0.5896 -0.9804,0.8912 -0.3237,0.3343996 -0.6053,0.6740996 -0.8469,1.0180996 -0.26599998,0.3788 -0.48369998,0.7628 -0.65599998,1.1508 -0.1849,0.4163 -0.3176,0.8372 -0.4019,1.2612 -0.0868,0.4368 -0.1223,0.8768 -0.1104,1.3185 0.0117,0.4364 0.0695,0.8744 0.1696,1.3123 0.0962,0.4212 0.2314,0.8423 0.4021,1.262 0.1623,0.3989 0.35659998,0.7965 0.57999998,1.1916 0.2122,0.3752 0.4506,0.7482 0.7127,1.1178 0.25,0.3526 0.5215,0.7023 0.8123,1.0479 0.2791,0.3316 0.5758,0.6596 0.8883,0.9832 0.3024,0.313 0.6195,0.6219 0.9495,0.9258 0.3212,0.2958 0.6545,0.5869 0.9985,0.8726 0.337,0.28 0.6841,0.5548 1.0399,0.8239 0.3502,0.265 0.7088,0.5244 1.0742,0.7775 0.3618,0.2508 0.7304,0.4954 1.1042,0.7334 0.3723,0.237 0.7498,0.4675 1.1311,0.6907 0.3821002,0.2237 0.7679002,0.4402 1.1561002,0.6488 0.3912,0.2104 0.7849,0.4127 1.1794,0.6066 0.3997,0.1964 0.8004,0.384 1.2004,0.5623 0.4085,0.182 0.8163,0.3543 1.2219,0.5161 0.4169,0.1663 0.8314,0.3216 1.2417,0.4652 0.443,0.1703 0.8867,0.3317 1.3312,0.4844 0.4483,0.154 0.8973,0.2993 1.3469,0.4359 0.4531,0.1378 0.9069,0.2668 1.3613,0.3873 0.4576,0.1214 0.9159,0.2342 1.3746,0.3386 0.4616,0.1051 0.9236,0.2017 1.3862,0.2901 0.4644,0.0887 0.9292,0.1692 1.3944,0.2416 0.4671,0.0728 0.9346,0.1374 1.4024,0.1942 0.4691,0.057 0.9385,0.1061 1.4082,0.1476 0.4706,0.0416 0.9415,0.0755 1.4125,0.102 0.4716,0.0265 0.9434,0.0457 1.4154,0.0577 0.4715,0.012 0.9432,0.0169 1.4149,0.0148 0.4718,-0.002 0.9435,-0.0109 1.4153,-0.0264 0.4717,-0.0155 0.9434,-0.0377 1.415,-0.0662 0.4706,-0.0285 0.9412,-0.0633 1.4116,-0.1041 0.4694,-0.0408 0.9387,-0.0877 1.4077,-0.1403 0.4686,-0.0526 0.9369,-0.111 1.4049,-0.1749 0.4671,-0.0638 0.9339,-0.1331 1.4003,-0.2077 0.4655,-0.0745 0.9306,-0.1541 1.3952,-0.2388 0.4639,-0.0845 0.9273,-0.174 1.3902,-0.2682 0.462,-0.094 0.9235,-0.1928 1.3844,-0.296 0.46,-0.103 0.9194,-0.2104 1.3781,-0.322 0.4581,-0.1115 0.9155,-0.2271 1.3721,-0.3467 0.4564,-0.1194 0.912,-0.2429 1.3668,-0.3699 0.4548,-0.1271 0.9088,-0.2579 1.362,-0.3921 0.4525,-0.134 0.9041,-0.2714 1.3548,-0.412 0.4503,-0.1405 0.8998,-0.2841 1.3482,-0.4307 0.4484,-0.1466 0.8958,-0.2961 1.3422,-0.4483 0.4469,-0.1524 0.8927,-0.3075 1.3374,-0.4651 0.4449,-0.1576 0.8887,-0.3176 1.3313,-0.4799 0.4434,-0.1626 0.8856,-0.3274 1.3265,-0.4941 0.4422,-0.1672 0.8831,-0.3364 1.3227,-0.5074 0.4403,-0.1712 0.8793,-0.3442 1.3168,-0.5187 0.4392,-0.1751 0.877,-0.3517 1.3133,-0.5296 0.4376,-0.1784 0.8737,-0.3581 1.3083,-0.5388 0.4367,-0.1816 0.8718,-0.3642 1.3053,-0.5475 0.436,-0.1845 0.8703,-0.3696 1.3028,-0.5553 0.3509,-0.0413 0.692,-0.0747 1.0235,-0.1002 0.3533,-0.0273 0.6956,-0.0457 1.0272,-0.0556 0.3557,-0.0107 0.6989,-0.0116 1.0299,-0.003 0.3567,0.0092 0.6992,0.0293 1.0278,0.0599 0.3563,0.0331 0.6962,0.0785 1.0201,0.1356 0.3531,0.0623 0.6871,0.1383 1.0025,0.2275 0.3456,0.0977 0.6689,0.211 0.9706,0.3389 0.3301,0.1401 0.6342,0.2976 0.9131,0.4713 0.3029,0.1885 0.5761,0.3961 0.8206,0.6209 0.2587,0.2378 0.4853,0.495 0.6811,0.7694 0.2003,0.2807 0.3684,0.5795 0.5055,0.8941 0.1355,0.3109 0.2408,0.6374 0.3171,0.9771 0.0714,0.3179 0.1059,0.6439 0.1073,0.9769 0.0012,0.3202 -0.0282,0.647 -0.0853,0.9795 -0.0538,0.3136 -0.1322,0.6322 -0.2324,0.9552 -0.0944,0.304 -0.2081,0.6118 -0.3391,0.923 -0.1238,0.2942 -0.2631,0.5915 -0.4158,0.8911 -0.1458,0.2859 -0.3039,0.574 -0.4727,0.8639 -0.162,0.2783 -0.3339,0.5582 -0.5142,0.8393 -0.1744,0.272 -0.3567,0.5452 -0.5457,0.8192 -0.1838,0.2667 -0.3739,0.5341 -0.569,0.8019 -0.1915,0.2628 -0.3878,0.5261 -0.5879,0.7895 -0.1972,0.2596 -0.398,0.5194 -0.6014,0.779 -0.2018,0.2576 -0.4061,0.515 -0.6118,0.7719 -0.2048,0.2558 -0.4111,0.5112 -0.6178,0.7659 -0.207,0.2551 -0.4145,0.5096 -0.6213,0.763 -0.2084,0.2554 -0.4162,0.5098 -0.6222,0.7629 -0.2088,0.2565 -0.4158,0.5116 -0.62,0.7651 -0.2079,0.2582 -0.4129,0.5148 -0.6136,0.7693 -0.2063,0.2615 -0.4082,0.5209 -0.6043,0.7778 -0.3186,0.3667 -0.5901,0.7306 -0.8172,1.0915 -0.2584,0.4106 -0.4593,0.8174 -0.6069,1.2202 -0.164,0.4477 -0.2621,0.8904 -0.2999,1.3279 -0.0396,0.4586 -0.013,0.9115 0.0733,1.3583 0.0847,0.4379 0.2268,0.8701 0.4202,1.2962 0.1818,0.4003 0.4088,0.7952 0.6761,1.1846 0.2483,0.3616 0.5313,0.7184 0.845,1.0702 0.2934,0.329 0.6137,0.6535 0.9575,0.9736 0.3242,0.3018 0.6694,0.5996 1.0328,0.8932 0.346,0.2796 0.7085,0.5554 1.0851,0.8273 0.3628,0.2619 0.7386,0.5202 1.1253,0.7748 0.3749,0.2468 0.76,0.4901 1.1535,0.7298 0.3849,0.2345 0.7778,0.4655 1.1768,0.6931 0.3924,0.2238 0.7908,0.4442 1.1935,0.6611 0.3995,0.2153 0.8032,0.4272 1.2093,0.6355 0.4045,0.2075 0.8115,0.4116 1.2193,0.6121 0.4096,0.2014 0.8199,0.3992 1.2294,0.5934 0.4142,0.1964 0.8276,0.3891 1.2382,0.578 0.4176,0.1921 0.8325,0.3802 1.2427,0.5642 0.4215,0.1892 0.838,0.374 1.2477,0.5545 0.4252,0.1873 0.843,0.3699 1.2511,0.5477 0.4288,0.1868 0.8469,0.3683 1.2517,0.5444 0.4332,0.1884 0.8513,0.3706 1.2509,0.5464 0.439,0.1931 0.856,0.3786 1.247,0.5562 0.375,0.1878 0.751,0.3738 1.128,0.5582 0.377,0.1843 0.755,0.367 1.134,0.5484 0.378,0.1813 0.758,0.3612 1.138,0.54 0.38,0.1786 0.76,0.356 1.141,0.5324 0.38,0.1763 0.762,0.3517 1.143,0.5263 0.382,0.1746 0.764,0.3484 1.146,0.5217 0.382,0.1733 0.765,0.346 1.148,0.5184 0.382,0.1722 0.765,0.3441 1.148,0.5158 0.383,0.1718 0.766,0.3434 1.149,0.5151 0.383,0.1715 0.766,0.3431 1.148,0.515 0.384,0.1721 0.767,0.3445 1.149,0.5174 0.382998,0.1728 0.764998,0.3462 1.146998,0.5202 0.382,0.1738 0.763,0.3483 1.144,0.5237 0.382,0.1757 0.763,0.3522 1.144,0.5298 0.38,0.1776 0.76,0.3563 1.139,0.5363 0.379,0.1799 0.757,0.3611 1.135,0.5438 0.378,0.1829 0.755,0.3674 1.131,0.5535 0.377,0.1862 0.752,0.374 1.126,0.5638 0.339,0.172 0.703,0.3216 1.085,0.4551 0.361,0.1264 0.739,0.2385 1.127,0.3417 0.374,0.0994 0.757,0.1906 1.145,0.2784 0.381,0.0862 0.766,0.1693 1.15,0.2537 0.385,0.0847 0.77,0.1709 1.149,0.2632 0.386,0.0941 0.767,0.1947 1.136,0.3066 0.384,0.1163 0.756,0.2449 1.11,0.3914 0.373,0.1542 0.726,0.3281 1.052,0.5284 0.341,0.209 0.653,0.4468 0.928,0.7206 0.275,0.2739 0.514,0.5839 0.708,0.9374 0.18,0.3269 0.321,0.6909 0.418,1.098 0.085,0.3549 0.136,0.7427 0.149,1.167 -0.019,0.4072 -0.054,0.7974 -0.105,1.1714 -0.055,0.4034 -0.128,0.7879 -0.217,1.154 -0.097,0.395 -0.213,0.769 -0.348,1.124 -0.144,0.377 -0.309,0.732 -0.493,1.066 -0.193,0.351 -0.408,0.679 -0.642,0.986 -0.24,0.314 -0.501,0.606 -0.781,0.878 -0.281,0.273 -0.58,0.525 -0.897,0.76 -0.313,0.23 -0.642,0.443 -0.986,0.639 -0.336,0.192 -0.687,0.369 -1.05,0.532 -0.353,0.158 -0.717,0.303 -1.092,0.437 -0.364,0.129 -0.738,0.248 -1.121,0.358 -0.372,0.106 -0.752,0.204 -1.139,0.294 -0.378,0.088 -0.762,0.168 -1.151,0.243 -0.381,0.073 -0.768,0.14 -1.158,0.202 -0.385,0.061 -0.773,0.118 -1.165,0.171 -0.386,0.052 -0.775,0.101 -1.166,0.148 -0.389,0.046 -0.779,0.089 -1.17,0.131 -0.389,0.042 -0.78,0.083 -1.17,0.123 -0.337,0.035 -0.648,0.075 -0.939,0.12 -0.334,0.051 -0.642,0.109 -0.931,0.172 -0.324,0.071 -0.626,0.147 -0.918,0.228 -0.308,0.085 -0.605998,0.176 -0.906998,0.269 -0.293,0.091 -0.59,0.184 -0.904,0.278 -0.285,0.085 -0.586,0.171 -0.911,0.256 -0.285,0.075 -0.59,0.149 -0.92,0.221 -0.288,0.063 -0.596,0.125 -0.928,0.184 -0.291,0.053 -0.601,0.103 -0.933,0.152 -0.295,0.044 -0.607,0.086 -0.939,0.126 -0.298,0.036 -0.611,0.07 -0.941,0.103 -0.3,0.03 -0.613,0.058 -0.942,0.085 -0.415,0.035 -0.841,0.094 -1.272,0.175 -0.415,0.079 -0.834,0.178 -1.249,0.297 -0.411,0.117 -0.818,0.254 -1.216,0.409 -0.403,0.158 -0.795,0.334 -1.17,0.529 -0.388,0.2 -0.758,0.421 -1.101,0.659 -0.362,0.251 -0.6951,0.523 -0.9903,0.814 -0.3156,0.311 -0.588,0.643 -0.8062,0.996 -0.2291,0.371 -0.3983,0.764 -0.4951,1.178 -0.0949,0.406 -0.12,0.832 -0.0634,1.276 0.0504,0.396 0.1655,0.806 0.3538,1.229 0.1599,0.36 0.3727,0.73 0.6434,1.108 0.2306,0.323005 0.5033,0.652005 0.8212,0.987005 0.3326,0.273 0.6646,0.545 0.9976,0.818 z"
     id="path863" />
</svg>
